# xmcd CD database file
#
# Track frame offsets:
#	150
#	28350
#	59597
#	95625
#	135762
#	180966
#	208500
#	244131
#	274633
#
# Disc length: 3910 seconds
#
# Revision: 0
# Processed by: cddbd v1.5.2PL0 Copyright (c) Steve Scherf et al.
# Submitted via: CDex 1.70beta2
#
DISCID=7a0f4409
DTITLE=AA.VV. - Musica per Rilassarsi e Rinnovarsi
DYEAR=2001
DGENRE=New Age
TTITLE0=Entrare nel profondo
TTITLE1=Lirica per lo spirito
TTITLE2=Srotolare le emozioni
TTITLE3=Sassofono interno
TTITLE4=Monocordo di pace
TTITLE5=Oltre il sogno
TTITLE6=Pizzicato per ritrovarsi
TTITLE7=Fuori dalla nebbia
TTITLE8=Carattere ed energia
EXTD=YEAR: 2001
EXTT0=
EXTT1=
EXTT2=
EXTT3=
EXTT4=
EXTT5=
EXTT6=
EXTT7=
EXTT8=
PLAYORDER=
